<svg class="img-fluid" id="outputsvg" xmlns="http://www.w3.org/2000/svg" style="transform: matrix(1, 0, 0, 1, 0, 0); transform-origin: 50% 50%; cursor: move; transition: transform 200ms ease-in-out 0s;" width="512" height="512" viewBox="0 0 5120 5120"><g id="l2mxgCq1j8chJDWpNPke3FG" fill="rgb(0,0,0)" style="transform: none;"><g style="transform: none;"><path id="pUaksI31g" d="M1645 5009 c-55 -21 -164 -70 -242 -109 -673 -335 -1189 -1005 -1343 -1745 -63 -302 -68 -674 -14 -989 116 -673 528 -1295 1112 -1679 312 -206 653 -335 1032 -394 163 -25 577 -25 740 0 379 59 720 188 1031 393 593 390 1003 1015 1118 1704 49 296 42 674 -18 963 -133 639 -532 1225 -1087 1599 -195 131 -557 298 -647 298 -46 0 -92 -22 -109 -53 -10 -16 -14 -134 -19 -477 -4 -391 -8 -463 -23 -515 -26 -90 -59 -158 -101 -204 -21 -23 -36 -43 -34 -45 2 -2 45 -8 94 -15 353 -48 648 -191 814 -395 104 -129 185 -323 223 -536 27 -156 29 -429 4 -545 -34 -152 -113 -315 -208 -427 l-31 -38 17 -52 c31 -94 41 -216 28 -331 -13 -117 -64 -292 -88 -301 -93 -36 -365 59 -617 215 l-77 48 -108 -24 c-219 -48 -440 -66 -668 -54 -159 9 -248 21 -397 55 l-108 24 -69 -45 c-236 -151 -568 -263 -632 -213 -20 16 -54 125 -74 233 -24 135 -16 270 22 393 l17 53 -31 37 c-54 64 -131 194 -161 272 -51 131 -65 217 -65 400 1 202 21 339 75 503 92 283 232 449 485 579 153 78 306 124 508 151 l88 12 -35 43 c-48 57 -83 131 -105 222 l-18 75 -66 22 c-92 32 -242 48 -317 35 -134 -24 -232 -98 -340 -256 -39 -57 -94 -125 -123 -150 -62 -54 -176 -113 -238 -124 -59 -10 -136 0 -156 20 -14 14 -14 19 -1 44 18 35 58 73 112 107 90 57 180 177 251 338 71 160 127 222 259 285 102 49 231 67 415 60 80 -3 157 -8 173 -12 l27 -6 0 251 c0 277 -4 297 -60 326 -46 24 -106 16 -215 -26z"></path></g></g></svg>