<svg class="img-fluid" id="outputsvg" xmlns="http://www.w3.org/2000/svg" style="transform: matrix(1, 0, 0, 1, 0, 0); transform-origin: 50% 50%; cursor: move; transition: transform 200ms ease-in-out 0s;" width="2160" height="2160" viewBox="0 0 21600 21600"><g id="l6jH9aGjp792OzcLknWVc5O" fill="rgb(20,83,101)" style="transform: none;"><g><path id="pVOoZIHkS" d="M9097 19354 c-14 -14 -101 -24 -287 -33 -127 -7 -211 -16 -239 -26 -24 -8 -76 -15 -115 -15 -83 0 -218 -22 -261 -43 -16 -8 -84 -20 -150 -27 -77 -8 -133 -19 -157 -31 -24 -12 -59 -19 -100 -19 -35 -1 -81 -8 -103 -16 -40 -16 -88 -27 -180 -44 -27 -5 -67 -18 -88 -29 -22 -11 -64 -23 -95 -26 -32 -3 -73 -15 -92 -25 -19 -10 -58 -21 -86 -25 -28 -3 -64 -13 -79 -21 -15 -8 -36 -14 -46 -14 -10 0 -20 -4 -23 -9 -3 -4 -28 -11 -56 -13 -32 -3 -55 -12 -63 -22 -8 -11 -39 -22 -82 -29 -39 -7 -77 -19 -86 -28 -9 -9 -38 -20 -65 -24 -27 -4 -67 -17 -89 -29 -22 -13 -57 -25 -78 -29 -20 -3 -49 -15 -62 -26 -14 -10 -45 -22 -68 -26 -23 -4 -49 -14 -59 -22 -9 -8 -42 -21 -74 -30 -32 -8 -70 -23 -85 -34 -15 -10 -34 -19 -43 -19 -19 0 -66 -21 -66 -30 0 -10 -48 -30 -71 -30 -12 0 -33 -8 -47 -19 -15 -10 -45 -24 -67 -31 -22 -7 -52 -21 -67 -31 -14 -11 -35 -19 -46 -19 -10 0 -36 -13 -57 -30 -21 -17 -50 -30 -65 -30 -15 0 -36 -10 -50 -25 -13 -14 -39 -28 -57 -31 -19 -4 -40 -15 -46 -25 -7 -11 -23 -19 -39 -19 -14 0 -39 -11 -55 -24 -16 -14 -48 -32 -71 -41 -23 -10 -42 -21 -42 -25 0 -4 -17 -15 -38 -23 -21 -8 -44 -22 -51 -31 -8 -9 -24 -16 -36 -16 -31 0 -55 -10 -55 -22 0 -15 -31 -37 -51 -38 -9 0 -33 -13 -54 -30 -21 -16 -45 -30 -54 -30 -9 0 -23 -9 -31 -20 -8 -11 -19 -20 -25 -20 -5 0 -25 -10 -44 -23 -19 -12 -49 -31 -67 -42 -18 -11 -60 -39 -95 -62 -35 -24 -67 -43 -72 -43 -5 0 -23 -12 -41 -26 -66 -54 -109 -84 -121 -84 -7 0 -19 -7 -26 -16 -12 -15 -58 -48 -108 -79 -9 -5 -32 -22 -52 -37 -20 -16 -40 -28 -44 -28 -5 0 -22 -12 -38 -27 -67 -63 -78 -73 -85 -73 -13 0 -141 -101 -175 -137 -11 -13 -26 -23 -33 -23 -7 0 -20 -10 -28 -21 -8 -12 -27 -30 -43 -40 -15 -10 -48 -35 -73 -54 -25 -19 -55 -39 -68 -45 -12 -5 -27 -21 -32 -35 -5 -14 -13 -25 -17 -25 -5 0 -33 -24 -64 -52 -31 -29 -89 -82 -129 -118 -40 -36 -95 -86 -123 -112 -28 -27 -55 -48 -59 -48 -4 0 -24 -19 -45 -42 -21 -23 -58 -60 -82 -82 -24 -23 -49 -47 -55 -55 -6 -7 -23 -25 -38 -39 -16 -15 -28 -32 -28 -39 0 -7 -6 -13 -14 -13 -8 0 -21 -9 -29 -21 -8 -11 -37 -44 -63 -73 -27 -28 -76 -83 -108 -121 -68 -80 -99 -115 -139 -152 -15 -14 -27 -32 -27 -38 0 -6 -11 -18 -25 -25 -13 -7 -27 -21 -30 -31 -3 -10 -14 -21 -25 -24 -10 -3 -21 -16 -24 -28 -6 -22 -55 -84 -159 -201 -29 -32 -54 -63 -57 -70 -3 -6 -17 -28 -32 -47 -16 -20 -28 -40 -28 -44 0 -5 -22 -34 -50 -66 -27 -32 -50 -60 -50 -64 0 -7 -18 -30 -42 -53 -10 -9 -18 -20 -18 -25 0 -8 -58 -87 -72 -97 -4 -3 -14 -21 -22 -40 -8 -19 -26 -48 -40 -65 -14 -16 -26 -35 -26 -42 0 -6 -9 -15 -20 -18 -11 -3 -20 -13 -20 -21 0 -18 -30 -66 -47 -77 -7 -4 -13 -14 -13 -22 0 -8 -13 -30 -30 -48 -16 -19 -30 -40 -30 -46 0 -10 -34 -66 -50 -81 -3 -3 -18 -32 -35 -64 -16 -32 -39 -69 -52 -82 -13 -13 -23 -30 -23 -39 0 -9 -13 -33 -29 -53 -17 -20 -33 -50 -37 -65 -3 -16 -13 -31 -20 -34 -8 -3 -14 -13 -14 -22 0 -10 -13 -37 -28 -62 -61 -95 -92 -151 -92 -163 0 -7 -8 -24 -19 -37 -10 -13 -22 -39 -26 -57 -4 -18 -18 -45 -31 -59 -13 -14 -24 -34 -24 -44 0 -11 -4 -19 -10 -19 -5 0 -10 -7 -10 -16 0 -9 -9 -27 -20 -41 -11 -14 -20 -33 -20 -42 0 -9 -11 -38 -25 -66 -13 -27 -25 -54 -25 -60 0 -5 -14 -30 -30 -55 -16 -25 -33 -61 -36 -80 -4 -19 -15 -42 -24 -50 -9 -8 -20 -35 -24 -60 -4 -24 -13 -51 -20 -60 -7 -8 -18 -35 -25 -60 -7 -25 -26 -65 -42 -89 -16 -25 -29 -58 -29 -74 0 -16 -9 -40 -20 -54 -11 -14 -20 -40 -20 -57 0 -17 -8 -44 -18 -61 -10 -16 -26 -59 -36 -94 -10 -36 -27 -77 -38 -92 -12 -16 -23 -50 -26 -81 -3 -29 -13 -66 -23 -83 -11 -16 -19 -45 -19 -63 0 -18 -8 -51 -19 -75 -28 -63 -39 -97 -45 -145 -4 -24 -16 -56 -28 -72 -15 -20 -22 -49 -26 -102 -3 -43 -12 -87 -23 -108 -11 -19 -19 -50 -19 -68 0 -36 -19 -124 -29 -132 -12 -10 -31 -78 -31 -112 0 -57 -19 -140 -36 -159 -11 -13 -17 -46 -21 -121 -3 -57 -13 -132 -23 -168 -11 -36 -24 -121 -31 -190 -7 -75 -19 -142 -30 -168 -14 -33 -19 -68 -19 -145 0 -171 -18 -365 -38 -400 -16 -29 -17 -85 -17 -697 1 -595 3 -668 17 -696 18 -32 38 -260 38 -424 0 -64 5 -99 19 -131 13 -29 25 -96 34 -196 9 -83 21 -162 28 -175 7 -13 16 -73 20 -135 5 -73 13 -120 23 -135 9 -13 21 -60 27 -103 6 -44 13 -94 15 -112 3 -18 11 -38 18 -46 15 -15 36 -101 36 -148 0 -16 7 -44 16 -62 9 -17 20 -63 25 -102 5 -44 16 -86 30 -110 13 -21 26 -64 30 -94 3 -31 16 -78 28 -105 13 -26 26 -70 30 -96 4 -27 15 -59 23 -72 8 -13 17 -50 20 -82 3 -36 11 -63 20 -70 21 -15 34 -44 43 -91 3 -22 18 -58 31 -81 13 -22 24 -57 24 -76 0 -22 7 -41 20 -53 11 -10 20 -31 20 -47 0 -16 18 -64 40 -108 22 -44 40 -85 40 -93 0 -7 9 -30 20 -52 11 -22 20 -49 20 -61 0 -11 9 -29 20 -39 11 -10 20 -30 20 -45 0 -15 11 -42 25 -61 33 -46 55 -93 55 -121 0 -13 9 -31 20 -41 13 -11 20 -29 20 -53 0 -26 5 -37 18 -41 11 -2 23 -21 31 -48 7 -23 21 -52 30 -62 27 -29 41 -59 41 -87 0 -16 6 -26 15 -26 8 0 19 -16 24 -38 6 -21 22 -53 36 -72 14 -19 25 -41 25 -49 1 -9 14 -32 30 -51 17 -19 30 -40 30 -48 0 -8 9 -25 20 -39 11 -14 20 -33 20 -43 0 -9 9 -25 20 -35 11 -10 20 -24 20 -32 0 -7 5 -13 10 -13 6 0 10 -9 10 -20 0 -10 13 -33 30 -50 16 -17 30 -37 30 -46 0 -8 8 -27 18 -42 10 -15 33 -48 50 -74 18 -25 32 -53 32 -60 0 -8 14 -27 30 -43 17 -16 30 -37 30 -47 0 -10 4 -18 8 -18 4 0 21 -22 37 -50 16 -27 35 -52 42 -54 7 -3 13 -14 13 -24 0 -10 9 -27 20 -37 12 -11 31 -36 42 -57 12 -21 25 -38 28 -38 4 0 12 -12 19 -27 7 -15 21 -33 32 -41 10 -7 19 -19 19 -26 0 -7 13 -31 30 -52 16 -22 42 -56 57 -77 15 -21 36 -46 46 -55 10 -9 27 -34 38 -55 11 -21 26 -40 34 -44 8 -3 15 -12 15 -20 0 -9 21 -36 47 -62 47 -46 113 -132 113 -147 0 -4 11 -19 25 -33 84 -88 136 -148 141 -163 3 -10 9 -18 14 -18 12 0 68 -57 109 -110 32 -43 85 -103 157 -181 19 -20 34 -41 34 -47 0 -6 10 -17 22 -23 13 -6 69 -58 125 -115 57 -57 107 -104 112 -104 5 0 14 -14 20 -30 5 -17 15 -30 22 -30 6 0 42 -29 78 -64 59 -58 105 -96 175 -146 11 -8 44 -39 73 -68 28 -28 56 -52 62 -52 6 0 11 -6 11 -12 0 -7 14 -21 30 -30 17 -9 30 -23 30 -30 0 -7 13 -19 29 -26 16 -7 31 -22 34 -32 3 -11 13 -20 24 -20 10 -1 34 -14 53 -30 19 -17 40 -30 46 -30 7 0 16 -9 19 -20 3 -11 12 -20 20 -20 7 0 23 -14 35 -30 12 -17 26 -30 32 -30 6 0 25 -12 43 -27 18 -16 50 -39 70 -53 40 -28 103 -75 151 -114 18 -15 39 -26 47 -26 8 0 17 -7 21 -15 3 -8 21 -22 40 -31 19 -10 37 -25 39 -35 3 -11 14 -19 24 -19 10 0 34 -13 53 -29 19 -15 45 -31 58 -35 12 -4 22 -13 22 -19 0 -7 10 -17 23 -23 74 -36 130 -69 134 -81 3 -8 30 -25 59 -39 29 -13 55 -28 59 -33 5 -9 26 -22 108 -63 20 -10 43 -27 49 -38 7 -11 23 -20 36 -20 13 0 37 -13 53 -29 16 -16 42 -32 58 -36 16 -3 35 -12 41 -20 6 -7 23 -16 38 -20 15 -3 38 -17 52 -29 14 -13 37 -26 52 -30 14 -3 39 -17 55 -29 15 -13 40 -27 55 -30 15 -4 33 -14 42 -22 8 -8 18 -15 23 -15 28 0 83 -23 83 -35 0 -7 24 -21 55 -30 34 -11 57 -24 60 -36 4 -12 16 -19 33 -19 42 0 72 -11 72 -26 0 -8 10 -14 25 -14 24 0 83 -24 95 -39 12 -14 70 -41 88 -41 30 0 52 -10 52 -25 0 -7 19 -15 47 -19 25 -3 54 -12 62 -19 9 -8 36 -19 61 -26 25 -7 65 -26 89 -42 25 -16 58 -29 76 -29 17 0 35 -4 41 -10 5 -5 41 -20 79 -34 39 -13 93 -32 120 -41 28 -10 77 -31 110 -46 33 -16 75 -29 94 -29 19 0 42 -7 52 -16 9 -8 45 -19 79 -24 34 -5 84 -20 111 -34 27 -14 61 -26 76 -26 42 0 94 -17 107 -36 9 -12 34 -18 87 -22 44 -3 88 -12 109 -23 19 -11 51 -19 70 -19 51 0 120 -20 182 -51 10 -5 33 -9 51 -9 55 0 151 -21 168 -36 11 -10 54 -18 125 -23 60 -5 132 -15 161 -24 28 -8 107 -21 175 -28 79 -8 135 -19 156 -31 26 -14 56 -18 145 -18 165 -1 311 -16 349 -37 31 -17 84 -18 823 -18 723 1 792 2 815 17 28 19 216 38 370 38 64 0 99 5 131 19 27 12 98 25 184 34 78 9 159 22 180 30 22 9 82 17 133 20 65 3 98 9 110 20 15 14 78 28 182 40 19 3 68 16 108 31 41 14 89 26 108 26 19 0 51 8 72 19 21 11 68 20 111 23 53 4 78 10 87 22 6 9 38 22 70 28 33 6 85 22 117 35 31 13 79 28 106 32 27 4 61 15 75 24 14 10 41 17 59 17 39 0 97 18 97 30 0 5 33 19 73 31 39 13 86 31 102 41 17 10 41 18 55 18 14 0 40 9 58 20 18 11 43 20 56 20 30 0 89 24 104 43 7 8 34 20 60 27 26 7 54 19 62 26 9 7 36 16 60 20 25 4 51 15 57 24 7 10 28 21 47 24 19 4 51 18 72 33 22 14 55 30 74 35 19 6 42 16 50 23 8 7 33 16 55 20 22 4 49 15 60 24 30 24 63 41 79 41 9 0 23 8 33 19 10 10 36 25 58 32 22 8 46 22 53 31 7 10 23 18 35 18 12 0 33 9 47 20 14 11 31 20 38 20 6 0 12 5 12 10 0 6 8 10 19 10 10 0 30 9 44 20 14 11 42 27 61 35 20 9 36 20 36 25 0 5 16 12 35 16 20 3 49 19 65 35 15 16 39 29 52 29 13 0 29 9 36 21 7 11 27 27 45 36 48 23 96 50 115 65 27 21 61 38 76 38 8 0 21 9 29 20 19 27 128 100 150 100 9 0 17 6 17 14 0 8 14 19 30 25 17 5 30 14 30 19 0 5 20 19 45 31 25 12 48 28 52 35 5 6 37 31 73 53 36 23 74 50 85 61 11 11 30 22 43 26 12 4 22 13 23 19 0 13 78 73 113 87 11 5 43 29 71 54 27 25 53 46 57 46 4 0 20 12 36 27 49 47 86 74 115 85 15 5 27 15 27 21 0 7 14 20 30 29 17 9 30 24 30 32 0 8 9 18 20 21 11 4 28 17 36 31 9 13 20 24 25 24 6 0 40 30 77 66 37 36 86 77 109 90 23 14 45 34 48 45 4 10 13 19 20 19 8 0 22 11 31 25 9 13 24 27 34 30 11 3 22 15 25 26 4 10 11 19 17 19 5 0 48 38 94 85 47 47 89 85 95 85 5 0 9 6 9 13 0 7 14 21 30 30 17 10 30 23 30 30 0 6 9 20 20 32 11 11 43 44 71 73 28 28 54 52 59 52 5 0 11 8 14 18 4 9 24 37 47 62 22 25 65 75 95 112 30 37 72 82 94 99 22 18 40 39 40 47 0 7 9 16 19 19 11 3 25 18 31 34 7 16 16 29 20 29 4 0 11 8 16 19 10 22 59 85 92 119 12 12 22 27 22 31 0 5 27 36 60 69 33 33 60 66 60 73 0 15 16 36 103 139 31 38 57 78 57 88 0 11 11 27 25 36 14 9 25 23 25 31 0 9 9 23 21 33 11 9 27 30 36 46 8 16 19 34 24 40 20 23 59 83 78 117 11 19 27 41 35 48 9 8 16 21 16 30 0 10 14 30 30 46 17 16 30 36 30 44 0 9 11 29 25 45 14 17 28 40 31 53 3 12 15 25 25 28 10 4 19 15 19 26 0 26 19 61 42 77 10 7 18 21 18 30 0 9 14 35 30 56 17 22 30 47 30 57 0 9 7 22 16 29 8 8 21 29 29 47 8 19 21 41 30 49 8 8 18 27 21 42 4 15 20 42 36 60 15 18 28 43 28 56 0 13 9 31 19 40 10 10 22 33 25 51 4 19 18 48 31 64 14 16 25 36 25 46 0 23 20 57 42 73 11 8 18 26 18 47 0 22 7 39 19 47 11 8 22 31 26 52 4 20 18 50 31 66 13 15 24 38 24 51 0 13 14 47 30 74 16 28 30 62 30 76 0 14 11 40 24 58 13 18 27 49 31 69 4 20 15 46 25 57 10 11 21 41 24 68 5 29 17 57 32 74 15 17 24 38 24 59 0 18 14 60 30 92 17 33 30 71 30 84 0 14 8 36 19 49 10 13 21 50 25 81 4 32 16 68 27 82 10 13 22 39 25 58 8 50 27 112 36 119 5 3 14 40 22 82 7 43 20 85 28 95 9 9 18 46 22 82 3 35 15 82 27 103 18 36 25 60 49 182 5 22 15 58 24 80 8 22 15 67 16 100 0 40 7 74 20 100 11 22 20 57 20 80 0 55 18 159 36 208 23 64 44 194 44 270 0 44 6 79 17 100 12 24 18 75 24 207 4 96 14 207 23 245 26 119 40 772 26 1248 -6 221 -15 420 -20 442 -18 78 -22 122 -29 290 -6 121 -12 179 -23 200 -10 19 -17 71 -21 140 -3 61 -12 133 -21 160 -39 129 -46 164 -52 239 -4 45 -15 97 -24 116 -10 21 -19 68 -22 117 -3 49 -11 91 -20 105 -8 12 -18 43 -21 68 -11 80 -23 126 -45 172 -12 24 -25 73 -28 109 -4 38 -14 73 -26 88 -10 13 -18 38 -18 55 0 27 -25 116 -50 181 -5 11 -11 37 -14 58 -2 20 -14 49 -24 62 -11 14 -23 49 -27 78 -4 28 -13 59 -21 68 -8 9 -21 41 -29 73 -8 31 -24 74 -35 96 -11 22 -20 48 -20 60 0 11 -13 46 -30 77 -16 31 -30 68 -30 83 0 16 -11 40 -27 57 l-26 29 -64 -64 c-34 -35 -63 -67 -63 -73 0 -5 -5 -9 -11 -9 -11 0 -89 -73 -89 -83 0 -7 -71 -77 -77 -77 -10 0 -143 -141 -143 -151 0 -5 -4 -9 -10 -9 -12 0 -90 -76 -90 -88 0 -4 -14 -15 -30 -24 -17 -9 -30 -24 -30 -33 0 -8 -4 -15 -10 -15 -13 0 -150 -137 -150 -150 0 -5 -5 -10 -10 -10 -13 0 -150 -137 -150 -150 0 -5 -8 -11 -18 -14 -11 -4 -25 -17 -32 -31 -7 -13 -22 -25 -34 -27 -11 -2 -26 -14 -33 -27 -6 -13 -19 -28 -27 -33 -9 -5 -16 -15 -16 -21 0 -7 -13 -21 -30 -30 -16 -10 -30 -24 -30 -32 0 -7 -10 -15 -22 -17 -12 -2 -27 -12 -33 -23 -13 -27 -241 -255 -255 -255 -5 0 -10 -6 -10 -14 0 -7 -11 -21 -24 -30 -14 -8 -27 -25 -31 -36 -3 -11 -12 -20 -20 -20 -7 0 -23 -13 -35 -30 -12 -16 -28 -30 -36 -30 -8 0 -14 -5 -14 -10 0 -6 -31 -42 -70 -80 -38 -39 -74 -70 -80 -70 -5 0 -10 -4 -10 -10 0 -8 -39 -55 -71 -85 -6 -5 -24 -22 -39 -37 -15 -16 -33 -28 -39 -28 -6 0 -11 -5 -11 -11 0 -10 -135 -149 -144 -149 -2 0 -34 -29 -70 -64 -36 -36 -82 -77 -103 -93 -21 -15 -47 -36 -57 -45 -11 -10 -26 -18 -33 -18 -7 0 -18 -9 -25 -20 -7 -11 -17 -20 -22 -20 -5 0 -24 -15 -41 -32 -28 -30 -54 -48 -124 -87 -15 -8 -30 -20 -34 -28 -4 -7 -13 -13 -19 -13 -13 0 -144 -88 -160 -107 -6 -7 -21 -13 -33 -13 -34 0 -55 -10 -55 -26 0 -8 -9 -14 -20 -14 -11 0 -20 -4 -20 -10 0 -5 -11 -10 -24 -10 -14 0 -31 -9 -39 -20 -15 -22 -57 -40 -93 -40 -14 0 -24 -6 -24 -15 0 -8 -12 -17 -27 -21 -54 -12 -65 -16 -100 -40 -20 -13 -48 -24 -63 -24 -15 0 -44 -11 -65 -25 -20 -14 -58 -28 -83 -32 -26 -3 -60 -14 -77 -24 -16 -9 -57 -22 -90 -29 -33 -6 -70 -15 -82 -21 -13 -5 -33 -13 -45 -18 -13 -5 -53 -12 -89 -14 -36 -2 -77 -12 -90 -20 -30 -20 -133 -37 -222 -37 -44 0 -89 -8 -130 -22 -59 -21 -77 -22 -392 -22 -293 1 -335 3 -375 19 -28 11 -90 20 -162 25 -135 9 -174 16 -206 37 -13 8 -49 17 -80 19 -59 5 -129 22 -147 35 -6 4 -42 13 -80 19 -40 6 -79 19 -90 29 -11 11 -43 21 -75 25 -30 3 -59 12 -65 19 -15 20 -50 37 -79 37 -14 0 -28 5 -31 10 -3 6 -13 10 -22 10 -8 0 -26 9 -40 20 -14 11 -38 20 -53 20 -15 0 -35 8 -44 19 -9 10 -31 21 -48 25 -16 3 -43 17 -60 31 -16 14 -38 25 -49 25 -10 0 -19 5 -19 10 0 6 -7 10 -15 10 -8 0 -24 9 -35 20 -11 11 -31 20 -43 20 -13 0 -32 9 -42 20 -10 11 -22 20 -28 20 -13 0 -141 86 -157 105 -7 8 -17 15 -23 15 -5 0 -24 11 -41 24 -17 13 -40 26 -51 30 -11 3 -28 19 -37 36 -9 16 -24 30 -33 30 -14 0 -24 7 -78 55 -14 12 -40 32 -59 43 -18 11 -39 30 -46 41 -7 12 -21 21 -32 21 -11 0 -20 7 -20 15 0 9 -13 24 -30 33 -16 9 -30 20 -30 23 0 9 -181 189 -191 189 -4 0 -10 8 -13 18 -3 9 -31 44 -62 76 -30 33 -62 72 -70 87 -8 16 -20 32 -26 36 -15 9 -58 69 -58 79 0 4 -15 22 -32 39 -18 17 -42 46 -53 65 -40 68 -44 75 -57 85 -7 5 -22 29 -32 52 -10 23 -29 52 -42 64 -13 12 -24 27 -24 33 0 6 -9 22 -20 36 -11 14 -20 34 -20 46 0 11 -9 29 -20 39 -11 10 -20 24 -20 32 0 7 -4 13 -10 13 -5 0 -10 9 -10 21 0 12 -11 34 -25 50 -13 16 -27 46 -31 67 -4 20 -15 43 -26 50 -10 7 -18 25 -18 41 0 16 -9 40 -20 54 -11 14 -20 32 -20 40 0 9 -4 18 -9 21 -4 3 -11 24 -14 47 -3 22 -15 51 -27 64 -14 15 -23 41 -27 81 -4 39 -12 63 -23 71 -11 8 -21 39 -30 90 -6 43 -20 94 -30 113 -12 22 -20 63 -23 110 -2 48 -10 85 -20 101 -21 31 -36 143 -37 262 0 64 -5 97 -17 120 -26 47 -32 515 -7 597 9 31 20 120 24 203 7 122 13 156 30 190 15 29 24 67 27 125 3 45 9 82 14 82 5 0 9 9 9 19 0 11 4 22 10 26 5 3 12 33 16 66 4 34 17 82 30 108 13 25 24 59 24 74 0 35 22 88 43 106 11 8 17 28 17 52 0 26 7 46 20 59 11 11 25 41 30 66 6 26 19 59 29 73 10 14 22 41 26 59 3 18 12 38 19 45 19 19 96 164 96 180 0 9 9 19 20 22 12 4 20 15 20 29 0 20 54 107 72 114 5 2 8 12 8 23 0 10 4 19 8 19 5 0 14 11 20 24 6 13 38 60 71 104 34 43 61 83 61 89 0 5 20 30 44 55 25 25 73 78 107 119 34 41 523 540 1088 1109 564 570 1046 1057 1069 1083 l44 47 -29 11 c-15 6 -35 16 -43 24 -8 7 -34 16 -57 20 -22 3 -56 17 -74 31 -19 14 -47 24 -65 24 -18 0 -36 5 -39 10 -3 6 -15 10 -26 10 -10 0 -19 4 -19 9 0 5 -24 14 -52 21 -66 14 -108 30 -108 40 0 4 -23 10 -51 13 -29 4 -74 18 -100 32 -27 14 -59 25 -71 25 -23 0 -64 14 -130 43 -21 10 -54 17 -74 17 -20 0 -51 8 -68 19 -17 10 -58 21 -91 25 -33 4 -80 16 -105 28 -25 12 -65 25 -90 29 -25 4 -65 11 -90 15 -25 3 -53 13 -62 22 -11 9 -52 17 -115 22 -97 7 -133 15 -133 30 0 4 -42 10 -92 13 -88 7 -132 15 -258 52 -30 9 -104 18 -165 21 -60 3 -128 12 -149 20 -26 10 -107 18 -237 24 -109 5 -228 16 -264 25 -56 13 -173 15 -769 15 -386 0 -705 -3 -709 -6z"></path></g></g><g id="l2mNTc2DucLtLIGg3aoWW0W" fill="rgb(240,80,51)" style="transform: none;"><g><path id="pgZPFfCEh" d="M17612 21324 c-12 -8 -52 -19 -90 -24 -37 -5 -89 -14 -117 -20 -27 -6 -115 -15 -195 -20 -102 -6 -163 -15 -205 -30 -33 -11 -94 -23 -135 -27 -50 -4 -83 -12 -99 -25 -15 -11 -40 -18 -70 -18 -31 0 -65 -10 -106 -30 -33 -17 -76 -30 -96 -30 -21 0 -47 -8 -61 -20 -14 -11 -47 -25 -74 -32 -27 -6 -58 -19 -69 -29 -11 -9 -33 -19 -50 -23 -16 -3 -52 -17 -80 -31 -27 -13 -62 -27 -77 -30 -16 -3 -28 -12 -28 -20 0 -8 -18 -19 -42 -26 -24 -7 -56 -23 -71 -36 -16 -13 -37 -23 -48 -23 -11 0 -30 -10 -43 -22 -26 -26 -64 -50 -116 -74 -19 -9 -51 -29 -70 -46 -49 -41 -51 -42 -90 -60 -19 -9 -56 -37 -81 -61 -25 -25 -56 -50 -68 -57 -29 -15 -69 -48 -100 -82 -14 -16 -30 -28 -35 -28 -5 0 -31 -22 -58 -50 -27 -27 -52 -50 -57 -50 -5 0 -17 -12 -26 -27 -10 -14 -45 -51 -78 -82 -33 -31 -65 -62 -71 -70 -6 -7 -23 -25 -38 -39 -16 -15 -28 -30 -28 -35 0 -10 -48 -73 -122 -159 -32 -36 -58 -69 -58 -73 0 -3 -8 -18 -19 -33 -10 -15 -34 -52 -54 -83 -20 -30 -42 -61 -50 -68 -8 -6 -21 -26 -28 -44 -7 -18 -21 -38 -31 -45 -10 -7 -18 -24 -18 -37 0 -13 -5 -27 -11 -31 -6 -3 -17 -21 -24 -38 -8 -18 -30 -56 -49 -85 -20 -29 -36 -60 -36 -68 0 -8 -9 -26 -20 -40 -11 -14 -20 -34 -20 -44 0 -23 -21 -69 -32 -69 -4 0 -8 -8 -8 -18 0 -10 -18 -55 -40 -100 -22 -44 -40 -93 -40 -106 0 -14 -9 -40 -20 -58 -11 -18 -20 -48 -20 -67 0 -19 -9 -53 -19 -75 -18 -39 -32 -94 -46 -180 -4 -21 -16 -51 -27 -67 -17 -23 -22 -46 -25 -131 -2 -57 -11 -130 -21 -163 -14 -52 -16 -121 -17 -500 0 -367 2 -444 15 -465 9 -16 16 -70 21 -151 5 -104 10 -133 27 -161 12 -19 29 -72 37 -119 9 -46 24 -97 33 -114 9 -16 19 -56 23 -88 4 -32 14 -66 23 -76 9 -10 16 -31 16 -48 0 -16 18 -64 40 -107 22 -42 40 -84 40 -92 0 -8 9 -24 20 -36 11 -12 20 -34 20 -48 0 -15 9 -35 19 -44 10 -10 22 -33 25 -51 4 -19 18 -48 32 -64 13 -16 30 -44 36 -63 6 -18 20 -39 30 -46 10 -8 18 -25 18 -42 0 -19 7 -34 20 -42 11 -7 20 -17 20 -22 0 -5 18 -35 40 -67 22 -32 40 -63 40 -69 0 -5 4 -10 8 -10 4 0 15 -12 24 -28 9 -15 28 -40 42 -57 14 -16 26 -35 26 -42 0 -6 8 -18 18 -25 11 -7 24 -23 31 -35 6 -13 29 -41 51 -63 21 -22 42 -46 47 -54 7 -13 151 -172 194 -215 71 -70 185 -174 206 -189 15 -9 44 -34 66 -54 21 -21 42 -38 47 -38 5 0 19 -13 32 -30 12 -16 28 -30 35 -30 7 0 13 -4 13 -10 0 -5 6 -10 13 -10 6 0 38 -19 69 -43 32 -23 80 -55 108 -72 27 -16 50 -33 50 -37 0 -5 6 -8 14 -8 7 0 19 -6 26 -14 6 -8 19 -12 28 -8 19 7 42 27 42 37 0 9 27 35 37 35 4 0 17 12 28 27 11 15 35 40 54 57 46 42 71 69 71 76 0 4 11 12 24 19 13 7 30 24 37 37 7 13 17 24 23 24 6 0 20 12 31 27 11 15 28 34 38 42 42 36 157 155 157 163 0 4 5 8 10 8 14 0 60 46 60 60 0 5 4 10 8 10 8 0 59 50 184 178 18 17 36 32 40 32 4 0 8 5 8 11 0 6 11 20 25 31 20 15 25 28 25 63 0 24 -4 46 -9 49 -5 3 -16 28 -25 55 -18 57 -23 285 -6 296 6 3 10 14 10 23 0 9 7 30 15 46 8 15 15 35 15 42 0 8 5 14 10 14 6 0 10 8 10 19 0 10 7 24 15 31 8 7 15 16 15 21 0 25 163 189 210 212 8 4 38 20 65 35 l50 28 3 1288 c1 944 -1 1292 -9 1302 -6 8 -17 14 -25 14 -11 0 -68 33 -99 58 -5 4 -28 21 -50 37 -49 36 -63 50 -100 100 -17 22 -33 42 -36 45 -17 13 -89 171 -89 193 0 9 -4 19 -10 22 -6 4 -10 60 -10 135 0 75 4 131 10 135 6 3 10 16 10 29 0 12 7 31 15 42 8 10 15 27 15 37 0 18 41 87 73 121 9 11 17 25 17 30 0 13 116 126 128 126 5 0 17 8 28 18 27 23 125 72 146 72 9 0 20 5 23 10 3 6 22 10 41 10 22 0 37 6 40 15 5 12 24 15 86 15 57 0 84 -4 94 -15 9 -8 33 -15 55 -15 21 0 39 -4 39 -10 0 -5 15 -10 34 -10 21 0 36 -6 40 -15 3 -8 15 -15 26 -15 11 0 20 -4 20 -9 0 -5 15 -16 33 -24 46 -23 227 -201 227 -224 0 -5 11 -32 25 -59 14 -28 31 -74 37 -102 7 -29 16 -52 20 -52 12 0 10 -218 -2 -225 -5 -3 -10 -17 -10 -31 0 -13 -4 -32 -10 -42 -5 -9 -17 -35 -27 -57 -9 -22 -30 -60 -45 -85 -32 -50 -134 -160 -148 -160 -6 0 -10 -6 -10 -13 0 -6 -15 -19 -32 -26 -18 -8 -39 -20 -45 -27 -7 -7 -18 -14 -25 -16 -10 -4 -13 -262 -13 -1294 l0 -1289 38 -3 39 -3 471 471 472 472 -1 70 c0 38 -5 72 -11 76 -6 4 -14 32 -17 62 -17 146 -18 162 -7 173 6 6 11 33 11 59 0 26 4 48 8 48 4 0 17 26 27 58 11 31 25 63 32 70 7 7 13 17 13 22 0 12 57 78 133 152 63 61 169 128 204 128 7 0 13 5 13 10 0 6 17 10 38 10 21 0 44 6 51 13 16 15 228 14 244 -2 6 -6 26 -11 44 -11 18 0 33 -4 33 -10 0 -5 5 -10 12 -10 18 0 88 -33 88 -42 0 -4 7 -8 15 -8 8 0 27 -10 42 -22 58 -47 172 -171 188 -204 9 -19 20 -34 25 -34 6 0 10 -11 10 -24 0 -14 5 -28 10 -31 6 -3 10 -15 10 -25 0 -10 7 -25 15 -34 8 -8 15 -32 15 -55 0 -22 5 -43 10 -46 6 -3 10 -37 10 -75 0 -38 -4 -72 -10 -75 -5 -3 -10 -26 -10 -51 0 -24 -4 -44 -10 -44 -5 0 -12 -16 -16 -35 -3 -19 -10 -35 -15 -35 -5 0 -9 -11 -9 -25 0 -14 -4 -25 -10 -25 -5 0 -17 -15 -26 -32 -32 -62 -99 -139 -159 -183 -22 -16 -42 -31 -45 -35 -15 -16 -159 -80 -182 -80 -14 0 -28 -6 -30 -12 -4 -10 -39 -13 -133 -13 -94 0 -129 3 -132 13 -5 14 -163 18 -163 4 0 -10 -151 -162 -160 -162 -4 0 -12 -11 -19 -24 -7 -13 -24 -30 -37 -37 -13 -7 -24 -18 -24 -25 0 -7 -5 -14 -10 -16 -14 -4 -680 -671 -680 -680 0 -4 -5 -8 -11 -8 -27 0 -38 -36 -39 -127 0 -51 4 -95 10 -98 6 -3 10 -50 10 -106 0 -59 -4 -99 -10 -99 -5 0 -10 -11 -10 -24 0 -34 -69 -196 -94 -222 -6 -6 -20 -23 -31 -38 -32 -44 -67 -79 -110 -111 -22 -17 -44 -36 -48 -42 -4 -7 -16 -13 -27 -13 -10 0 -20 -3 -22 -7 -5 -13 -68 -43 -88 -43 -10 0 -22 -4 -25 -10 -3 -5 -22 -10 -41 -10 -19 0 -34 -4 -34 -10 0 -6 -40 -10 -99 -10 -56 0 -103 4 -106 10 -3 6 -45 10 -93 10 l-88 0 -384 -385 c-212 -211 -391 -385 -397 -385 -27 0 -11 -22 29 -40 24 -11 59 -29 78 -40 19 -11 48 -20 64 -20 16 0 37 -7 47 -16 10 -9 37 -18 61 -21 48 -6 98 -24 98 -35 0 -5 11 -8 24 -8 40 0 190 -41 208 -57 12 -11 48 -17 125 -20 75 -4 116 -10 133 -21 60 -39 1004 -38 1105 1 22 9 85 17 140 20 84 4 108 8 149 31 27 14 57 26 67 26 33 0 113 22 150 41 20 11 55 19 77 19 24 0 49 8 65 20 14 11 33 20 44 20 33 0 90 20 111 38 12 10 40 25 64 32 24 8 55 22 70 32 14 10 38 18 52 18 14 0 35 9 46 20 11 11 29 20 41 20 26 0 61 18 77 41 7 10 31 24 52 30 22 7 40 16 40 20 0 5 17 18 38 29 20 11 44 24 52 29 8 5 31 16 51 25 20 9 40 23 43 31 3 9 20 23 38 31 38 17 87 51 139 96 20 17 54 40 75 52 21 11 60 42 87 68 27 27 51 48 54 48 2 0 26 23 52 50 26 28 50 50 53 50 9 0 138 132 138 141 0 4 9 11 20 14 11 3 20 10 20 15 0 14 94 110 108 110 7 0 12 9 12 20 0 11 4 20 9 20 5 0 32 34 61 76 51 74 65 93 106 137 11 12 26 37 33 55 8 17 17 32 21 32 4 0 16 17 25 37 10 21 29 46 42 56 12 10 23 28 23 39 0 12 7 29 15 38 28 30 85 132 85 150 0 9 13 34 30 55 16 21 30 45 30 53 0 8 11 34 24 56 13 23 27 59 31 79 4 21 16 44 26 50 11 7 19 23 19 38 0 14 14 51 30 82 17 31 30 71 30 89 0 18 11 48 25 68 17 25 27 56 31 100 4 36 10 67 13 70 16 14 31 53 31 83 0 54 20 150 37 176 11 16 18 66 24 160 8 139 16 198 29 216 18 24 23 96 24 320 0 148 -4 255 -11 280 -29 102 -33 128 -42 255 -7 99 -15 147 -31 182 -12 28 -23 80 -27 128 -3 44 -9 80 -12 80 -11 0 -30 54 -36 105 -4 28 -18 71 -31 97 -13 26 -24 59 -24 72 0 13 -13 53 -30 88 -16 34 -30 72 -30 84 0 11 -9 29 -19 38 -11 10 -22 35 -26 56 -4 21 -17 53 -31 71 -13 18 -24 44 -24 57 0 13 -13 40 -30 59 -18 20 -30 45 -30 62 0 17 -7 31 -16 35 -8 3 -24 25 -34 50 -11 24 -27 49 -35 56 -8 7 -15 20 -15 29 0 10 -11 27 -25 39 -14 12 -25 27 -25 34 0 15 -67 116 -92 139 -10 9 -18 21 -18 27 0 6 -13 26 -30 44 -16 18 -30 40 -30 49 0 9 -11 21 -25 27 -14 6 -25 18 -25 26 0 8 -16 29 -36 48 -68 64 -73 69 -114 128 -14 19 -36 43 -49 54 -13 10 -28 25 -35 33 -14 18 -51 55 -69 69 -8 7 -23 23 -33 36 -11 14 -30 30 -43 37 -29 16 -68 48 -100 84 -14 15 -31 27 -37 27 -6 0 -14 9 -17 20 -3 11 -16 24 -30 29 -13 5 -27 16 -30 25 -3 8 -21 22 -39 31 -39 18 -95 58 -121 86 -10 10 -21 19 -26 19 -4 0 -19 9 -32 21 -13 11 -36 23 -52 26 -15 3 -37 19 -48 34 -12 18 -29 29 -43 29 -13 0 -29 7 -37 16 -7 8 -31 25 -53 36 -23 11 -48 26 -56 33 -8 7 -27 15 -42 19 -15 3 -33 12 -40 19 -19 20 -54 37 -73 37 -9 0 -29 8 -43 19 -15 10 -47 25 -72 32 -25 7 -54 20 -65 29 -11 10 -42 23 -70 29 -27 7 -64 21 -81 32 -17 10 -44 19 -59 19 -16 0 -51 11 -80 24 -28 14 -76 28 -106 31 -30 4 -65 15 -79 24 -16 12 -54 20 -106 24 -45 3 -101 13 -125 22 -70 26 -118 34 -209 35 -47 1 -123 8 -170 16 -47 8 -110 18 -142 23 -31 5 -67 16 -79 25 -31 21 -127 22 -157 0z"></path></g></g><g id="l77lpyeE1Pe68i4Uqad8uWg" fill="rgb(255,255,255)" style="transform: none;"><g><path id="p4toxNf9J" d="M17196 20255 c-3 -9 -18 -15 -40 -15 -19 0 -38 -4 -41 -10 -3 -5 -14 -10 -23 -10 -21 0 -119 -49 -146 -72 -11 -10 -23 -18 -28 -18 -12 0 -128 -113 -128 -126 0 -5 -8 -19 -17 -30 -32 -34 -73 -103 -73 -121 0 -10 -7 -27 -15 -37 -8 -11 -15 -30 -15 -42 0 -13 -4 -26 -10 -29 -5 -3 -10 -37 -10 -76 0 -39 -4 -69 -10 -69 -13 0 -13 -37 0 -45 6 -3 10 -35 10 -70 0 -35 5 -67 10 -70 6 -3 10 -13 10 -22 0 -22 72 -180 89 -193 3 -3 19 -23 36 -45 37 -50 51 -64 100 -100 22 -16 45 -33 50 -37 31 -25 88 -58 99 -58 8 0 19 -6 25 -14 8 -10 10 -350 9 -1272 l-3 -1258 -50 -28 c-27 -15 -57 -31 -65 -35 -47 -23 -210 -187 -210 -212 0 -5 -7 -14 -15 -21 -8 -7 -15 -21 -15 -31 0 -11 -4 -19 -10 -19 -5 0 -10 -6 -10 -14 0 -7 -7 -27 -15 -42 -8 -16 -15 -37 -15 -46 0 -9 -5 -20 -10 -23 -6 -3 -10 -35 -10 -71 0 -35 -6 -74 -12 -85 -10 -17 -10 -23 0 -26 8 -3 12 -26 12 -66 0 -60 17 -126 42 -168 11 -18 10 -23 -14 -44 -16 -13 -28 -29 -28 -35 0 -5 -4 -10 -8 -10 -4 0 -22 -15 -40 -32 -125 -128 -176 -178 -184 -178 -4 0 -8 -5 -8 -10 0 -14 -46 -60 -60 -60 -5 0 -10 -4 -10 -8 0 -8 -115 -127 -157 -163 -10 -8 -27 -27 -38 -42 -11 -15 -25 -27 -31 -27 -6 0 -16 -11 -23 -24 -7 -13 -24 -30 -37 -37 -13 -7 -24 -15 -24 -19 0 -7 -25 -34 -71 -76 -19 -17 -43 -42 -54 -57 -11 -15 -24 -27 -28 -27 -10 0 -37 -26 -37 -35 0 -10 -28 -35 -39 -35 -6 0 -11 -4 -11 -8 0 -14 35 -42 51 -42 8 0 30 -11 49 -25 19 -14 39 -25 46 -25 6 0 27 -13 47 -28 19 -15 66 -40 103 -56 38 -15 83 -34 99 -43 17 -8 48 -21 71 -28 l41 -12 389 388 388 389 57 0 c32 0 61 -4 64 -10 4 -6 60 -10 136 -10 79 0 129 4 129 10 0 6 15 10 34 10 19 0 38 5 41 10 3 6 15 10 25 10 20 0 83 30 88 43 2 4 12 7 22 7 11 0 23 6 27 13 4 6 26 25 48 42 43 32 78 67 110 111 11 15 25 32 31 38 25 26 94 188 94 222 0 13 5 24 10 24 6 0 10 50 10 129 0 76 -4 132 -10 136 -5 3 -10 34 -10 68 1 61 15 97 39 97 6 0 11 4 11 8 0 9 666 676 680 680 5 2 10 9 10 16 0 7 11 18 24 25 13 7 30 24 37 37 7 13 15 24 19 24 9 0 160 152 160 162 0 14 98 9 103 -4 5 -18 319 -18 324 0 3 6 17 12 31 12 23 0 167 64 182 80 3 4 23 19 45 35 60 44 127 121 159 183 9 17 21 32 26 32 6 0 10 11 10 25 0 14 4 25 9 25 5 0 12 16 15 35 4 19 11 35 16 35 6 0 10 20 10 44 0 25 4 48 10 51 6 3 10 50 10 105 0 55 -4 102 -10 105 -5 3 -10 24 -10 46 0 23 -7 47 -15 55 -8 9 -15 24 -15 34 0 10 -4 22 -10 25 -5 3 -10 17 -10 31 0 13 -4 24 -10 24 -5 0 -16 15 -25 34 -16 33 -130 157 -188 204 -15 12 -34 22 -42 22 -8 0 -15 4 -15 8 0 9 -70 42 -88 42 -7 0 -12 5 -12 10 0 6 -15 10 -33 10 -18 0 -38 5 -45 12 -16 16 -287 17 -303 1 -7 -7 -30 -13 -51 -13 -21 0 -38 -4 -38 -10 0 -5 -6 -10 -13 -10 -35 0 -141 -67 -204 -128 -76 -74 -133 -140 -133 -152 0 -5 -6 -15 -13 -22 -7 -7 -21 -39 -32 -70 -10 -32 -23 -58 -27 -58 -4 0 -8 -22 -8 -48 0 -26 -5 -53 -11 -59 -17 -17 4 -282 23 -294 5 -3 9 -25 10 -48 l0 -42 -471 -471 c-312 -312 -475 -468 -481 -462 -17 17 -9 2516 8 2522 7 2 18 9 25 16 6 7 27 19 45 27 17 7 32 20 32 26 0 7 4 13 10 13 14 0 116 110 148 160 15 25 36 63 45 85 10 22 22 48 27 57 6 10 10 29 10 42 0 14 5 28 10 31 12 7 14 285 2 285 -4 0 -13 23 -20 52 -6 28 -23 74 -37 102 -14 27 -25 54 -25 59 0 23 -181 201 -227 224 -18 8 -33 19 -33 24 0 5 -9 9 -20 9 -11 0 -23 7 -26 15 -4 9 -19 15 -40 15 -19 0 -34 5 -34 10 0 6 -18 10 -39 10 -22 0 -46 7 -55 15 -11 12 -40 15 -124 15 -88 0 -111 -3 -116 -15z"></path></g></g></svg>